<?xml version="1.0" standalone="no"?>
<!DOCTYPE svg PUBLIC "-//W3C//DTD SVG 1.1//EN" "http://www.w3.org/Graphics/SVG/1.1/DTD/svg11.dtd" >
<svg xmlns="http://www.w3.org/2000/svg">
<metadata>Generated by IcoMoon</metadata>
<defs>
<font id="Convergent-Admin" horiz-adv-x="1024">
<font-face units-per-em="1024" ascent="960" descent="-64" />
<missing-glyph horiz-adv-x="1024" />
<glyph unicode="&#x20;" horiz-adv-x="512" d="" />
<glyph unicode="&#xe900;" glyph-name="activity" d="M628.4 60.2c-16.8 0-31.6 10.6-36.8 26.6l-196 587.8-79.6-238.6c-5.2-15.8-20-26.6-36.8-26.6h-155c-21.4 0-38.8 17.4-38.8 38.8s17.4 38.8 38.8 38.8h127.2l107.6 322.6c5.2 15.8 20 26.6 36.8 26.6s31.6-10.6 36.8-26.6l195.8-587.8 79.6 238.6c5.2 15.8 20 26.6 36.8 26.6h155.2c21.4 0 38.8-17.4 38.8-38.8s-17.4-38.8-38.8-38.8h-127.2l-107.6-322.6c-5.4-15.8-20.2-26.6-36.8-26.6z" />
<glyph unicode="&#xe901;" glyph-name="admin" d="M813.6 749.8c-80.6 80.6-187.6 124.8-301.6 124.8 0 0 0 0 0 0-235.2 0-426.6-191.2-426.6-426.6s191.4-426.6 426.6-426.6c93.2 0 185.2 31.2 259.4 88 17 13 20.2 37.4 7.2 54.4s-37.4 20.2-54.4 7.2c-60.6-46.4-136-72-212.2-72-192.4 0-349 156.6-349 349s156.6 349.2 349 349.2c0 0 0 0 0 0 93.2 0 180.8-36.2 246.8-102.2 66-65.8 102.2-153.6 102.2-246.8v-38.8c0-42.8-34.8-77.6-77.6-77.6s-77.4 34.8-77.4 77.6v194c0 21.4-17.4 38.8-38.8 38.8s-38.8-17.4-38.8-38.8v-0.2c-32.4 24.4-72.8 38.8-116.4 38.8-107 0-194-87-194-194s87-194 194-194c57.6 0 109.6 25.4 145 65.4 28.2-39.6 74.2-65.4 126.4-65.4 85.6 0 155.2 69.6 155.2 155.2v38.8c0 114-44.4 221.2-125 301.8zM512 331.8c-64.2 0-116.4 52.2-116.4 116.4s52.2 116.4 116.4 116.4c64.2 0 116.4-52.2 116.4-116.4s-52.2-116.4-116.4-116.4z" />
<glyph unicode="&#xe902;" glyph-name="admin-profile" d="M425 839.48c-0.049 0-0.107 0-0.164 0-112.014 0-202.82-90.806-202.82-202.82 0-69.783 35.242-131.334 88.899-167.827l0.706-0.453c-103.62-44.38-176.6-147.24-176.6-266.86h58c-0.001 0.191-0.001 0.418-0.001 0.645 0 64.51 26.48 122.835 69.164 164.699l0.037 0.036 69.56-88.36 109.3 72.84-32.16 48.26-64.68-43.16-35.8 45.52c33.342 19.786 73.5 31.48 116.389 31.48 0.060 0 0.12 0 0.18 0h-0.010c112.114 0 203 90.886 203 203s-90.886 203-203 203v0zM425 781.48c80.081 0 145-64.919 145-145s-64.919-145-145-145c-80.081 0-145 64.919-145 145 0 0.007 0 0.014 0 0.021v-0.001c0 0.131-0.001 0.286-0.001 0.441 0 79.827 64.713 144.54 144.54 144.54 0.162 0 0.324 0 0.486-0.001h-0.025zM657 462.5v-61.16c-19.134-4.077-36.039-11.486-50.906-21.654l0.486 0.314-43.72 43.5-40.86-40.98 43.5-43.38c-9.927-14.44-17.39-31.418-21.331-49.706l-0.169-0.934h-61v-58h61c4.116-19.223 11.586-36.2 21.833-51.122l-0.313 0.482-43.52-43.36 40.9-41.020 43.72 43.5c14.383-9.84 31.288-17.236 49.491-21.133l0.929-0.167v-61.16h58v61.16c19.132 4.061 36.038 11.456 50.907 21.614l-0.487-0.314 43.72-43.5 40.82 41.020-43.5 43.38c9.938 14.438 17.403 31.418 21.333 49.71l0.167 0.93h60.94v58h-60.94c-4.108 19.223-11.579 36.202-21.832 51.12l0.312-0.48 43.52 43.36-40.9 41.020-43.7-43.54c-14.382 9.844-31.288 17.239-49.492 21.134l-0.928 0.166v61.2zM686 346.5c48.049 0 87-38.951 87-87s-38.951-87-87-87c-48.049 0-87 38.951-87 87v0c-0.001 0.125-0.001 0.273-0.001 0.421 0 47.817 38.763 86.58 86.58 86.58 0.148 0 0.296 0 0.444-0.001h-0.023zM686 288.5c-0.006 0-0.013 0-0.020 0-16.016 0-29-12.984-29-29s12.984-29 29-29c16.016 0 29 12.984 29 29v0c-0.023 16-12.982 28.966-28.977 29h-0.003z" />
<glyph unicode="&#xe903;" glyph-name="alert-circle" d="M512 21.4c-235.2 0-426.6 191.4-426.6 426.6s191.4 426.6 426.6 426.6 426.6-191.2 426.6-426.6-191.4-426.6-426.6-426.6zM512 797.2c-192.4 0-349-156.6-349-349s156.6-349 349-349c192.4 0 349 156.6 349 349s-156.6 349-349 349zM512 409.2c-21.4 0-38.8 17.4-38.8 38.8v155.2c0 21.4 17.4 38.8 38.8 38.8s38.8-17.4 38.8-38.8v-155.2c0-21.4-17.4-38.8-38.8-38.8zM512 254.2c-5 0-10 1.2-14.8 3.2-4.6 2-9 4.6-12.8 8.2-7.4 7.4-11.2 17-11.2 27.6 0 5 1.2 10 3 14.8 2 4.6 4.6 9 8.2 12.8 3.8 3.4 7.8 6.2 12.8 8.2 9.4 4 20.2 4 29.4 0 5-2 9-4.6 12.8-8.2 3.4-3.8 6.2-8.2 8.2-12.8s3.2-9.6 3.2-14.8c0-10.4-3.8-20.2-11.2-27.6-7.4-7.6-17.2-11.4-27.6-11.4z" />
<glyph unicode="&#xe904;" glyph-name="arrow-left" d="M421.38 750l-278.52-278.44-22.52-23.56 22.52-23.56 278.52-278.44 47.1 47.1-222.2 222.2h657.38v65.46h-657.38l222.2 222.2z" />
<glyph unicode="&#xe905;" glyph-name="arrow-left-circle" d="M512 874.6c-235.2 0-426.6-191.2-426.6-426.6s191.4-426.6 426.6-426.6 426.6 191.4 426.6 426.6-191.4 426.6-426.6 426.6zM512 99c-192.4 0-349 156.6-349 349s156.6 349 349 349c192.4 0 349-156.6 349-349s-156.6-349-349-349zM667.2 486.8h-216.6l89 89c15.2 15.2 15.2 39.6 0 54.8s-39.6 15.2-54.8 0l-155-155c-1-1-1.8-2-2.6-3-0.2-0.4-0.6-0.8-0.8-1-0.4-0.6-1-1.2-1.4-2-0.4-0.4-0.6-1-1-1.4-0.4-0.6-0.8-1.2-1-1.8s-0.6-1-0.8-1.6c-0.2-0.6-0.6-1.2-0.8-1.8s-0.4-1-0.6-1.6c-0.2-0.6-0.4-1.2-0.6-2-0.2-0.6-0.2-1.2-0.4-1.8s-0.4-1.4-0.4-2c-0.2-0.6-0.2-1.4-0.4-2 0-0.6-0.2-1.2-0.2-1.8-0.2-1.2-0.2-2.6-0.2-3.8v0c0 0 0 0 0 0 0-1.2 0-2.6 0.2-3.8 0-0.6 0.2-1.2 0.2-1.8s0.2-1.4 0.4-2c0.2-0.6 0.4-1.4 0.4-2 0.2-0.6 0.2-1.2 0.4-1.8s0.4-1.2 0.6-2c0.2-0.6 0.4-1.2 0.6-1.6 0.2-0.6 0.6-1.2 0.8-1.8s0.4-1 0.8-1.6c0.4-0.6 0.6-1.2 1-1.8 0.4-0.4 0.6-1 1-1.4 0.4-0.6 1-1.4 1.4-2 0.2-0.4 0.6-0.8 0.8-1 0.8-1 1.8-2 2.6-3l155-155c7.6-7.6 17.4-11.4 27.4-11.4s19.8 3.8 27.4 11.4c15.2 15.2 15.2 39.6 0 54.8l-89 89h216.6c21.4 0 38.8 17.4 38.8 38.8s-17.4 38.8-38.8 38.8z" />
<glyph unicode="&#xe906;" glyph-name="bell" d="M511.8 21.4c-19.8 0-39.8 5-58.2 15.6-17.6 10.2-32.2 24.8-42.2 42.4-10.8 18.6-4.4 42.2 14.2 53s42.2 4.4 53-14.2c3.4-5.8 8.2-10.6 14-14 18.6-10.8 42.2-4.4 53 14 10.8 18.6 34.6 24.8 53 14 18.6-10.8 24.8-34.4 14-53-21.6-37-60.6-57.8-100.8-57.8zM899.8 215.2h-775.6c-21.4 0-38.8 17.4-38.8 38.8s17.4 38.8 38.8 38.8c42.8 0 77.6 34.8 77.6 77.6v194c0 171 139.2 310.2 310.2 310.2s310.2-139.2 310.2-310.2v-194c0-42.8 34.8-77.6 77.6-77.6 21.4 0 38.8-17.4 38.8-38.8s-17.4-38.8-38.8-38.8zM258.6 292.8h507c-13.2 22.8-20.8 49.4-20.8 77.6v194c0 128.4-104.4 232.6-232.6 232.6s-232.6-104.4-232.6-232.6v-194c-0.2-28.2-7.8-54.8-21-77.6z" />
<glyph unicode="&#xe907;" glyph-name="calendar" d="M783.4 797.2h-77.4v38.6c0 21.4-17.4 38.8-38.8 38.8s-38.8-17.4-38.8-38.8v-38.8h-232.8v38.8c0 21.4-17.4 38.8-38.8 38.8s-38.8-17.4-38.8-38.8v-38.8h-77.6c-64.2 0-116.4-52.2-116.4-116.4v-543c0-64.2 52.2-116.4 116.4-116.4h543c64.2 0 116.4 52.2 116.4 116.4v543.2c0 64.2-52.2 116.4-116.4 116.4zM240.6 719.6h77.4v-38.8c0-21.4 17.4-38.8 38.8-38.8s38.8 17.4 38.8 38.8v38.8h232.6v-38.8c0-21.4 17.4-38.8 38.8-38.8s38.8 17.4 38.8 38.8v38.8h77.6c21.4 0 38.8-17.4 38.8-38.8v-116.4h-620.4v116.4c0 21.4 17.4 38.8 38.8 38.8zM783.4 99h-542.8c-21.4 0-38.8 17.4-38.8 38.8v349h620.6v-349c-0.2-21.4-17.6-38.8-39-38.8z" />
<glyph unicode="&#xe908;" glyph-name="check" d="M369.8 140c-12.2 0-24.2 4.6-33.6 13.8l-237 237c-18.6 18.6-18.6 48.6 0 67s48.6 18.6 67 0l203.4-203.4 487.8 487.8c18.6 18.6 48.6 18.6 67 0 18.6-18.6 18.6-48.6 0-67l-521-521.4c-9.4-9.2-21.4-13.8-33.6-13.8z" />
<glyph unicode="&#xe909;" glyph-name="check-circle" d="M512 21.4c0 0-0.2 0-0.2 0-235.2 0.2-426.4 191.6-426.4 426.8 0.2 235.2 191.6 426.4 426.6 426.4 0 0 0.2 0 0.2 0 60.2 0 118.4-12.4 173.4-37 19.6-8.8 28.4-31.6 19.6-51.2-8.6-19.6-31.6-28.4-51.2-19.6-45 20-92.6 30.2-141.8 30.2 0 0-0.2 0-0.2 0-192.4 0-349-156.4-349-348.8s156.4-349.2 348.8-349.2c0 0 0.2 0 0.2 0 192.4 0 349 156.4 349 348.8v35.6c0 21.4 17.4 38.8 38.8 38.8s38.8-17.4 38.8-38.8v-35.6c-0.2-235-191.4-426.4-426.6-426.4zM512 331.2c-10.2 0-20.2 4-27.4 11.4l-116.4 116.4c-15.2 15.2-15.2 39.6 0 54.8s39.6 15.2 54.8 0l89-89 360.4 360.8c15.2 15.2 39.6 15.2 54.8 0s15.2-39.6 0-54.8l-387.8-388.4c-7.2-7.2-17-11.2-27.4-11.2z" />
<glyph unicode="&#xe90a;" glyph-name="chevron-down" d="M512 204.4c-15.6 0-31.2 6-43 17.8l-365.8 365.6c-23.8 23.8-23.8 62.4 0 86.2s62.4 23.8 86.2 0l322.6-322.6 322.6 322.6c23.8 23.8 62.4 23.8 86.2 0s23.8-62.4 0-86.2l-365.8-365.6c-11.8-12-27.4-17.8-43-17.8z" />
<glyph unicode="&#xe90b;" glyph-name="circle" d="M512 21.4c-235.2 0-426.6 191.4-426.6 426.6s191.4 426.6 426.6 426.6 426.6-191.2 426.6-426.6-191.4-426.6-426.6-426.6zM512 797.2c-192.4 0-349-156.6-349-349s156.6-349 349-349c192.4 0 349 156.6 349 349s-156.6 349-349 349z" />
<glyph unicode="&#xe90c;" glyph-name="close" d="M598.2 448l322.6 322.6c23.8 23.8 23.8 62.4 0 86.2s-62.4 23.8-86.2 0l-322.6-322.6-322.6 322.6c-23.8 23.8-62.4 23.8-86.2 0s-23.8-62.4 0-86.2l322.6-322.6-322.6-322.4c-23.8-23.8-23.8-62.4 0-86.2 12-12 27.4-17.8 43-17.8s31.2 6 43 17.8l322.8 322.6 322.6-322.6c12-12 27.4-17.8 43-17.8s31.2 6 43 17.8c23.8 23.8 23.8 62.4 0 86.2l-322.4 322.4z" />
<glyph unicode="&#xe90d;" glyph-name="delete" d="M832 768h-462.2c-10.2 0-20-4.4-26.8-12.2l-248.8-284.4c-11.8-13.4-11.8-33.4 0-46.8l248.8-284.4c6.8-7.8 16.4-12.2 26.8-12.2h462.2c58.8 0 106.6 47.8 106.6 106.6v426.8c0 58.8-47.8 106.6-106.6 106.6zM867.6 234.8c0-19.6-16-35.6-35.6-35.6h-446l-217.8 248.8 217.8 249h446c19.6 0 35.6-16 35.6-35.6v-426.6zM750.4 579.8c-13.8 13.8-36.4 13.8-50.2 0l-81.6-81.6-81.6 81.6c-13.8 13.8-36.4 13.8-50.2 0s-13.8-36.4 0-50.2l81.6-81.6-81.6-81.6c-13.8-13.8-13.8-36.4 0-50.2 7-7 16-10.4 25.2-10.4 9 0 18.2 3.4 25.2 10.4l81.6 81.6 81.6-81.6c7-7 16-10.4 25.2-10.4 9 0 18.2 3.4 25.2 10.4 13.8 13.8 13.8 36.4 0 50.2l-81.8 81.6 81.6 81.6c13.8 13.8 13.8 36.4-0.2 50.2z" />
<glyph unicode="&#xe90e;" glyph-name="download" d="M486.1 782.9v-450.9l-63.68 63.68-40.1-39.26 131.68-131.68 131.68 131.68-40 39.26-63.68-63.68v450.9zM123.3 252.64v-139.54h781.4v139.54h-55.8v-83.72h-669.8v83.72z" />
<glyph unicode="&#xe90f;" glyph-name="edit" d="M767.62 834.9c-36.193-0.093-68.907-14.906-92.487-38.767l-503.293-503.293-2-10-34.8-175-10-46.74 46.74 10 185.060 36.82 503.28 503.2c23.562 23.724 38.125 56.412 38.125 92.502 0 72.274-58.403 130.906-130.589 131.278h-0.035zM767.62 774.22c16 0 32.2-7.32 47.74-22.86 30.96-30.96 30.96-64.54 0-95.48l-22.88-21.88-94.48 94.48 21.88 22.88c15.54 15.54 31.7 22.86 47.74 22.86zM653.24 683.72l94.48-94.48-384.92-384.92c-21.158 40.845-53.634 73.322-93.276 93.911l-1.204 0.569zM227.54 247.1c38.19-15.644 67.916-45.37 83.195-82.557l0.365-1.003-104.44-20.88z" />
<glyph unicode="&#xe910;" glyph-name="eye" d="M514 652.12c-212.68 0-376.34-187.38-376.34-187.38l-15.14-16.74 15.14-16.74s149.2-170.14 347.64-185.78c8.612-1.019 18.588-1.6 28.7-1.6s20.087 0.581 29.896 1.712l-1.196-0.112c198.44 15.64 347.64 185.78 347.64 185.78l15.14 16.74-15.14 16.74s-163.66 187.38-376.34 187.38zM514 601.080c56.22 0 108-15.34 153.080-35.88 16.026-25.999 25.521-57.505 25.521-91.229 0-0.158 0-0.317-0.001-0.475v0.024c0-0.133 0.001-0.291 0.001-0.448 0-91.564-68.957-167.021-157.773-177.274l-0.828-0.078c-0.5-0.1-1.1 0.1-1.6 0-6-0.3-12.16-0.8-18.34-0.8-6.78 0-13.36 0.4-20 0.8-89.75 10.56-158.718 86.176-158.718 177.901 0 33.472 9.184 64.8 25.171 91.599l-0.453-0.82h-0.8c45.5 20.94 97.94 36.68 154.74 36.68zM514 550c-42.272 0-76.54-34.268-76.54-76.54s34.268-76.54 76.54-76.54c42.272 0 76.54 34.268 76.54 76.54v0c-0.011 42.267-34.273 76.529-76.539 76.54h-0.001zM290.76 526c-4.055-16.046-6.382-34.467-6.382-53.431 0-44.951 13.074-86.849 35.626-122.098l-0.544 0.91c-47.038 27.877-87.618 59.877-123.478 96.515l-0.102 0.105c28.291 28.53 59.327 54.251 92.708 76.76l2.172 1.38zM737.24 526c35.557-23.851 66.592-49.526 94.847-77.967l0.033-0.033c-35.963-36.689-76.543-68.643-120.852-94.979l-2.728-1.501c22.008 34.339 35.082 76.237 35.082 121.189 0 18.964-2.327 37.385-6.711 54.993l0.329-1.561z" />
<glyph unicode="&#xe911;" glyph-name="file" d="M863.4 566c-0.2 1-0.2 2.2-0.4 3.2 0 0.2 0 0.4 0 0.6-1.6 7.8-5.4 14.8-10.8 20.2l-273.4 273c-5.4 5.4-12.4 9.4-20.2 10.8-0.2 0-0.4 0-0.6 0-1 0.2-2 0.4-3.2 0.4-1.2 0.2-2.6 0.2-4 0.2h-273.2c-64.6 0-117.2-52.6-117.2-117.2v-625c0-64.6 52.6-117.2 117.2-117.2h468.8c64.6 0 117.2 52.6 117.2 117.2v430c0 1.2-0.2 2.6-0.2 3.8zM590.2 741.4l140-140h-140v140zM746.4 93.4h-468.8c-21.6 0-39 17.6-39 39v625c0 21.6 17.6 39 39 39h234.4v-234.4c0-21.6 17.4-39 39-39h234.4v-390.6c0-21.4-17.4-39-39-39z" />
<glyph unicode="&#xe912;" glyph-name="file-text" d="M858 618.2c-2 4.8-4.8 9-8.4 12.6l-232.6 232.4c-3.6 3.6-7.8 6.4-12.6 8.4-4.6 2-9.8 3-15 3h-310c-64.2 0-116.4-52.2-116.4-116.4v-620.6c0-64.2 52.2-116.4 116.4-116.4h465.4c64.2 0 116.4 52.2 116.4 116.4v465.6c-0.2 5.2-1.2 10.2-3.2 15zM628.4 742.2l100.2-100.2h-100.2v100.2zM744.6 99h-465.2c-21.4 0-38.8 17.4-38.8 38.8v620.6c0 21.4 17.4 38.8 38.8 38.8h271.4v-194c0-21.4 17.4-38.8 38.8-38.8h194v-426.6c-0.2-21.4-17.6-38.8-39-38.8zM667.2 448h-310.4c-21.4 0-38.8-17.4-38.8-38.8s17.4-38.8 38.8-38.8h310.2c21.4 0 38.8 17.4 38.8 38.8 0.2 21.6-17.2 38.8-38.6 38.8zM667.2 293h-310.4c-21.4 0-38.8-17.4-38.8-38.8s17.4-38.8 38.8-38.8h310.2c21.4 0 38.8 17.4 38.8 38.8s-17.2 38.8-38.6 38.8zM356.8 525.6h77.6c21.4 0 38.8 17.4 38.8 38.8s-17.4 38.8-38.8 38.8h-77.6c-21.4 0-38.8-17.4-38.8-38.8s17.4-38.8 38.8-38.8z" />
<glyph unicode="&#xe913;" glyph-name="filter" d="M589.6 60.2c-6 0-11.8 1.4-17.4 4l-155.2 77.8c-13.2 6.6-21.4 20-21.4 34.6v239.4l-301 356c-9.8 11.6-12 27.6-5.6 41.4 6.4 13.6 20 22.4 35.2 22.4h775.6c15.2 0 28.8-8.8 35.2-22.4s4.2-29.8-5.6-41.4l-301-356v-317c0-13.4-7-26-18.4-33-6.2-3.8-13.4-5.8-20.4-5.8zM473.2 200.6l77.6-38.8v268.4c0 9.2 3.2 18 9.2 25l256.2 303h-608.4l256.2-303c6-7 9.2-15.8 9.2-25v-229.6z" />
<glyph unicode="&#xe914;" glyph-name="hash" d="M335.64 836v-211.64h-211.64v-70.54h211.64v-211.64h-211.64v-70.54h211.64v-211.64h70.54v211.64h211.64v-211.64h70.54v211.64h211.64v70.54h-211.64v211.64h211.64v70.54h-211.64v211.64h-70.54v-211.64h-211.64v211.64zM406.18 553.82h211.64v-211.64h-211.64z" />
<glyph unicode="&#xe915;" glyph-name="home" d="M512 836c-214 0-388-174-388-388s174-388 388-388 388 174 388 388-174 388-388 388zM512 771.34c178.576 0 323.34-144.764 323.34-323.34s-144.764-323.34-323.34-323.34c-178.576 0-323.34 144.764-323.34 323.34v0c0 0.154 0 0.337 0 0.52 0 178.289 144.531 322.82 322.82 322.82 0.183 0 0.366 0 0.548 0h-0.028zM512 739c-17.861 0-32.34-14.479-32.34-32.34s14.479-32.34 32.34-32.34c17.861 0 32.34 14.479 32.34 32.34v0c-0.034 17.847-14.493 32.306-32.337 32.34h-0.003zM329.12 663.22c-0.006 0-0.013 0-0.020 0-17.861 0-32.34-14.479-32.34-32.34s14.479-32.34 32.34-32.34c17.861 0 32.34 14.479 32.34 32.34v0c-0.034 17.84-14.481 32.295-32.316 32.34h-0.004zM671.64 653.12l-143.48-142.48c-4.683 1.272-10.060 2.002-15.607 2.002-0.194 0-0.389-0.001-0.583-0.003h0.030c-35.711 0-64.66-28.949-64.66-64.66s28.949-64.66 64.66-64.66c35.711 0 64.66 28.949 64.66 64.66 0 0.007 0 0.014 0 0.021v-0.001c0.002 0.164 0.002 0.359 0.002 0.553 0 5.547-0.731 10.924-2.101 16.039l0.099-0.432 143.48 143.48zM253.34 480.34c-0.006 0-0.013 0-0.020 0-17.861 0-32.34-14.479-32.34-32.34s14.479-32.34 32.34-32.34c17.861 0 32.34 14.479 32.34 32.34v0c-0.034 17.84-14.481 32.295-32.316 32.34h-0.004zM770.66 480.34c-17.861 0-32.34-14.479-32.34-32.34s14.479-32.34 32.34-32.34c17.861 0 32.34 14.479 32.34 32.34v0c-0.034 17.847-14.493 32.306-32.337 32.34h-0.003zM329.12 297.44c-0.006 0-0.013 0-0.020 0-17.861 0-32.34-14.479-32.34-32.34s14.479-32.34 32.34-32.34c17.861 0 32.34 14.479 32.34 32.34 0 0.007 0 0.014 0 0.021v-0.001c-0.034 17.836-14.484 32.286-32.317 32.32h-0.003zM694.88 297.44c-17.861 0-32.34-14.479-32.34-32.34s14.479-32.34 32.34-32.34c17.861 0 32.34 14.479 32.34 32.34 0 0.007 0 0.014 0 0.021v-0.001c-0.034 17.843-14.495 32.297-32.338 32.32h-0.002z" />
<glyph unicode="&#xe916;" glyph-name="info-circle" d="M512 21.4c-235.2 0-426.6 191.4-426.6 426.6s191.4 426.6 426.6 426.6 426.6-191.2 426.6-426.6-191.4-426.6-426.6-426.6zM512 797.2c-192.4 0-349-156.6-349-349s156.6-349.2 349-349.2 349 156.6 349 349-156.6 349.2-349 349.2zM512 254.2c-21.4 0-38.8 17.4-38.8 38.8v155c0 21.4 17.4 38.8 38.8 38.8s38.8-17.4 38.8-38.8v-155.2c0-21.2-17.4-38.6-38.8-38.6zM512 564.4c-10.4 0-20.2 4.2-27.6 11.2-3.4 3.8-6.2 8.2-8.2 12.8s-3.2 9.6-3.2 14.8c0 10 4.2 20.2 11.2 27.6 2 1.6 3.8 3.6 5.8 4.6 2.4 1.6 4.6 2.8 7 3.6 2.4 1.2 4.6 2 7 2.4 5.4 0.8 10.4 1.2 15.2 0 2.8-0.4 5-1.2 7.4-2.4 2.4-0.8 4.6-2 6.6-3.6 2.4-1.6 4.2-3.2 6.2-4.6 7-7.4 11.2-17.4 11.2-27.6 0-5-1.2-10-3.2-14.8s-4.6-9-8.2-12.8c-2-1.6-4-3.4-6.2-4.6-2-1.6-4.2-2.8-6.6-3.6-2.4-1.2-4.6-2-7.4-2.4-2-0.2-4.6-0.6-7-0.6z" />
<glyph unicode="&#xe917;" glyph-name="lock" d="M512 839.48c-115.76 0-210.8-95.040-210.8-210.8v-90.34h-90.34v-481.82h602.28v481.82h-90.34v90.34c0 115.76-95.040 210.8-210.8 210.8zM512 779.26c83.095-0.159 150.412-67.484 150.56-150.566v-90.354h-301.12v90.34c0.148 83.097 67.465 150.421 150.545 150.58h0.015zM271.080 478.12h481.84v-361.38h-481.84z" />
<glyph unicode="&#xe918;" glyph-name="logout" d="M479.4 835.4v-387.4h65.2v387.4zM381.58 813.2c-151.72-53.34-260.86-196.84-260.86-365.2 0-213.62 175.52-387.4 391.28-387.4s391.28 173.78 391.28 387.4c0 168.36-109.14 311.86-260.86 365.2v-69.6c115.020-49.94 195.58-163.6 195.58-295.6 0-178-146.22-322.84-326-322.84s-326 144.84-326 322.84c0 132 80.64 245.66 195.66 295.6z" />
<glyph unicode="&#xe919;" glyph-name="mail" d="M122 718v-540h780v540zM251.38 658h521.24l-260.62-173.44zM182 631.76l313.12-209.080 16.88-10.3 16.88 10.3 313.12 209.080v-393.76h-660z" />
<glyph unicode="&#xe91a;" glyph-name="map" d="M512 839.48c-145.1 0-263.42-118.34-263.42-263.42 0-41.16 16.68-88.38 39.32-140s51.8-106.32 81.42-157.32c59.22-102.1 118.9-187.5 118.9-187.5l23.78-34.72 23.78 34.76s59.68 85.4 118.9 187.5c29.62 51 58.78 105.76 81.42 157.32s39.32 98.8 39.32 140c0 145.040-118.32 263.38-263.42 263.38zM512 780.94c0.143 0 0.312 0.001 0.481 0.001 112.887 0 204.4-91.513 204.4-204.4 0-0.19 0-0.38-0.001-0.57v0.029c0-23.44-12.56-67.8-33.84-116.16s-50.64-102-79.58-151.84c-46-79.36-74.54-121.32-91.46-146.36-16.92 25.040-45.5 67-91.46 146.36-28.94 49.84-58.32 103.46-79.58 151.84s-33.84 92.78-33.84 116.16c0 0.161-0.001 0.351-0.001 0.541 0 112.887 91.513 204.4 204.4 204.4 0.169 0 0.338 0 0.507-0.001h-0.026zM512 634.6c-32.331 0-58.54-26.209-58.54-58.54s26.209-58.54 58.54-58.54c32.31 0 58.506 26.175 58.54 58.477v0.003c0 0.030 0 0.065 0 0.1 0 32.309-26.191 58.5-58.5 58.5-0.014 0-0.028 0-0.042 0h0.002z" />
<glyph unicode="&#xe91b;" glyph-name="merchant" d="M751.6 41.4c-6.2 0-12.4 1.4-18 4.4l-221.6 116.6-221.6-116.6c-13-7-28.8-5.8-40.8 3-12 8.6-18 23.4-15.4 38l42.4 246.8-179.4 174.4c-10.6 10.4-14.4 25.8-9.8 39.8s16.6 24.2 31.2 26.4l247.8 36.2 110.8 224.6c13 26.6 56.6 26.6 69.6 0l110.8-224.6 247.8-36.2c14.6-2.2 26.8-12.4 31.2-26.4 4.6-14 0.8-29.4-9.8-39.8l-179.2-174.6 42.4-246.8c2.4-14.6-3.4-29.2-15.4-38-7-4.8-15-7.2-23-7.2zM512 245c6.2 0 12.4-1.4 18-4.4l170-89.4-32.4 189.4c-2.2 12.6 2 25.4 11.2 34.4l137.6 134-190.2 27.8c-12.6 1.8-23.6 9.8-29.2 21.2l-85 172.2-85-172.2c-5.6-11.4-16.6-19.4-29.2-21.2l-190.2-27.8 137.6-134c9.2-9 13.4-21.8 11.2-34.4l-32.4-189.4 170 89.4c5.6 3 11.8 4.4 18 4.4z" />
<glyph unicode="&#xe91c;" glyph-name="merchant-profile" d="M744.6 797.2h-38.6c0 42.8-34.8 77.6-77.6 77.6h-232.8c-42.8 0-77.6-34.8-77.6-77.6h-38.8c-64.2 0-116.4-52.2-116.4-116.4v-543c0-64.2 52.2-116.4 116.4-116.4h465.4c64.2 0 116.4 52.2 116.4 116.4v543c0 64.2-52.2 116.4-116.4 116.4zM395.6 797.2h232.6v-77.6h-232.6v38.4c0 0.2 0 0.2 0 0.4s0 0.2 0 0.4v38.4zM783.4 137.8c0-21.4-17.4-38.8-38.8-38.8h-465.2c-21.4 0-38.8 17.4-38.8 38.8v543c0 21.4 17.4 38.8 38.8 38.8h38.6c0-42.8 34.8-77.6 77.6-77.6h232.6c42.8 0 77.6 34.8 77.6 77.6h38.8c21.4 0 38.8-17.4 38.8-38.8v-543z" />
<glyph unicode="&#xe91d;" glyph-name="message" d="M473.2 21.4c-5.2 0-10.4 1-15.4 3.2-15.8 6.8-25.2 23.2-23 40.4l33.2 266.8h-305c-15 0-28.8 8.8-35.2 22.4s-4.2 29.6 5.4 41.2l387.8 465.4c11 13.2 29.4 17.6 45.2 10.8s25.2-23.4 23-40.4l-33.2-266.8h305.2c15 0 28.8-8.8 35.2-22.4s4.4-29.8-5.4-41.2l-388-465.4c-7.6-9-18.6-14-29.8-14zM245.8 409.2h266.2c11.2 0 21.8-4.8 29-13.2 7.4-8.4 10.8-19.4 9.4-30.4l-22.4-179 250.2 300.2h-266.2c-11.2 0-21.8 4.8-29 13.2-7.4 8.4-10.8 19.4-9.4 30.4l22.4 179-250.2-300.2z" />
<glyph unicode="&#xe91e;" glyph-name="mobile" d="M316.26 839.48c-17.080 0-34.54-6-46.9-18.36s-18.34-29.82-18.34-46.88v-652.48c0-17.060 6-34.52 18.34-46.88s29.82-18.36 46.9-18.36h391.48c17.080 0 34.54 6 46.9 18.36s18.34 29.82 18.34 46.88v652.48c0 17.060-6 34.52-18.34 46.88s-29.82 18.36-46.9 18.36zM316.26 774.24h391.48v-652.48h-391.48zM512 741.62c-0.006 0-0.013 0-0.020 0-18.027 0-32.64-14.613-32.64-32.64s14.613-32.64 32.64-32.64c18.027 0 32.64 14.613 32.64 32.64v0c-0.034 18.006-14.616 32.595-32.616 32.64h-0.004zM446.76 219.62v-65.26h130.48v65.28z" />
<glyph unicode="&#xe91f;" glyph-name="plus-circle" d="M512 836.66c-214.3 0-388.66-174.36-388.66-388.66s174.36-388.66 388.66-388.66 388.66 174.36 388.66 388.66-174.36 388.66-388.66 388.66zM512 776.88c181.635 0 328.88-147.245 328.88-328.88s-147.245-328.88-328.88-328.88c-181.635 0-328.88 147.245-328.88 328.88v0c0 0.125 0 0.273 0 0.42 0 181.403 147.057 328.46 328.46 328.46 0.148 0 0.295 0 0.443 0h-0.023zM482.1 627.38v-149.48h-149.48v-59.9h149.48v-149.48h59.9v149.48h149.48v59.8h-149.48v149.58z" />
<glyph unicode="&#xe920;" glyph-name="qr-code" d="M810.6 21.4h-128c-23.6 0-42.6 19-42.6 42.6s19 42.6 42.6 42.6h128c23.6 0 42.6 19.2 42.6 42.6v128c0 23.6 19 42.6 42.6 42.6s42.6-19 42.6-42.6v-128c0.2-70.4-57.2-127.8-127.8-127.8zM341.4 21.4h-128c-70.6 0-128 57.4-128 128v128c0 23.6 19 42.6 42.6 42.6s42.6-19 42.6-42.6v-128c0-23.6 19.2-42.6 42.6-42.6h128c23.6 0 42.6-19 42.6-42.6 0.2-23.6-18.8-42.8-42.4-42.8zM896 576c-23.6 0-42.6 19-42.6 42.6v128c0 23.6-19.2 42.6-42.6 42.6h-128c-23.6 0-42.6 19-42.6 42.6s19 42.6 42.6 42.6h128c70.6 0 128-57.4 128-128v-128c-0.2-23.2-19.2-42.4-42.8-42.4zM128 576c-23.6 0-42.6 19-42.6 42.6v128c0 70.6 57.4 128 128 128h128c23.6 0 42.6-19 42.6-42.6s-19-42.6-42.6-42.6h-128c-23.6 0-42.6-19.2-42.6-42.6v-128c0-23.6-19.2-42.8-42.8-42.8z" />
<glyph unicode="&#xe921;" glyph-name="report" d="M589.6 835.8h-155.2c-21.4 0-38.8-17.4-38.8-38.8v-698c0-21.4 17.4-38.8 38.8-38.8h155.2c21.4 0 38.8 17.4 38.8 38.8v698c0 21.6-17.4 38.8-38.8 38.8zM550.8 137.8h-77.6v620.6h77.6v-620.6zM899.8 642h-155.2c-21.4 0-38.8-17.4-38.8-38.8v-504.2c0-21.4 17.4-38.8 38.8-38.8h155.2c21.4 0 38.8 17.4 38.8 38.8v504.2c0 21.4-17.4 38.8-38.8 38.8zM861 137.8h-77.6v426.6h77.6v-426.6zM279.4 448h-155.2c-21.4 0-38.8-17.4-38.8-38.8v-310.2c0-21.4 17.4-38.8 38.8-38.8h155.2c21.4 0 38.8 17.4 38.8 38.8v310.2c-0.2 21.6-17.4 38.8-38.8 38.8zM240.6 137.8h-77.6v232.8h77.6v-232.8z" />
<glyph unicode="&#xe922;" glyph-name="search" d="M120.52 535.040c0-167.78 136.64-304.42 304.44-304.42 0.188 0 0.411-0.001 0.634-0.001 72.943 0 139.845 25.86 192.040 68.913l-0.514-0.412 242.6-242.6 43.76 43.76-242.6 242.6c42.64 51.68 68.501 118.583 68.501 191.526 0 0.223 0 0.446-0.001 0.669v-0.034c0 167.8-136.64 304.44-304.42 304.44s-304.44-136.64-304.44-304.44zM668.52 535.040c0-134.514-109.046-243.56-243.56-243.56s-243.56 109.046-243.56 243.56c0 134.514 109.046 243.56 243.56 243.56v0c0.125 0 0.273 0 0.42 0 134.271 0 243.12-108.849 243.12-243.12 0-0.155 0-0.31 0-0.464v0.024z" />
<glyph unicode="&#xe923;" glyph-name="security" d="M512 21.4c-6 0-11.8 1.4-17.4 4-13.6 6.8-331.6 168.8-331.6 422.6v271.6c0 16.2 10 30.6 25.2 36.4l310.2 116.4c8.8 3.2 18.4 3.2 27.2 0l310.4-116.6c15.2-5.6 25.2-20.2 25.2-36.4v-271.4c0-253.8-318.2-415.8-331.6-422.6-5.8-2.6-11.6-4-17.6-4zM240.6 692.6v-244.6c0-176.4 209-308.2 271.4-343.8 62.4 35.8 271.4 168 271.4 343.8v244.6l-271.4 101.8-271.4-101.8z" />
<glyph unicode="&#xe924;" glyph-name="settings" d="M512 305.8c-78.4 0-142.2 63.8-142.2 142.2s63.8 142.2 142.2 142.2c78.4 0 142.2-63.8 142.2-142.2s-63.8-142.2-142.2-142.2zM512 519.2c-39.2 0-71-31.8-71-71s31.8-71 71-71c39.2 0 71 32 71 71 0.2 39-31.8 71-71 71zM514.8 21.4c-58.8 0-106.6 47.8-106.6 106.6-0.2 12-6.2 20.2-15.2 23.6-10.8 4.6-20.8 2.8-27.6-3.8-43.4-43.4-111-43.4-152.6-2-0.2 0.2-0.6 0.6-0.8 0.8-19.8 20-30.6 46.6-30.6 74.6 0 28.6 11 55.2 31.2 75.4 8.6 8.8 10.4 18.8 6.6 27.4-3.8 8.8-12 14.4-21.4 14.4h-5.8c-58.8 0-106.6 47.8-106.6 106.6s47.8 106.6 106.6 106.6c12 0.2 20.2 6.2 23.6 15.2 4.6 10.8 2.8 20.8-3.8 27.6-43.4 43.4-43.4 111-2 152.6 41.6 41.6 109.2 41.8 150.8 0.2 8.8-8.6 18.8-10.4 27.4-6.6 2.2 1 4.6 1.8 7 2.2 6.2 4.2 10.2 11.4 10.2 19v6c0 58.8 47.8 106.6 106.6 106.6s106.6-47.8 106.6-106.6c0-12.2 5.6-20.6 14-24.2 9-4 19-2.2 25.8 4.4 22 22 48.8 33.2 77.2 33.2 0 0 0 0 0 0 28.2 0 54.8-11 75-30.8 0.2-0.2 0.4-0.4 0.4-0.4v0c41.6-41.6 41.6-109.2 0.2-150.8-8.6-8.8-10.4-18.8-6.6-27.4 1-2.2 1.8-4.6 2.2-7 4.2-6.2 11.4-10 19-10.2h6c58.8 0 106.6-47.8 106.6-106.6s-47.8-106.6-106.6-106.6c-12.2 0-20.6-5.6-24.2-14 0-0.2-0.2-0.2-0.2-0.4-3.8-8.6-2-18.6 4.6-25.4 43.4-43.4 43.4-111 2-152.6-41.6-41.6-109.2-41.6-151-0.2-8.8 8.6-18.8 10.4-27.4 6.6-8.8-3.8-14.4-12-14.4-21.4v-5.8c0.6-58.8-47.4-106.8-106.2-106.8zM382.2 225.6c12.8 0 25.4-2.6 37.6-8 34.4-12.6 58.6-46.4 59.6-85.4 0-0.2 0-3.8 0-4 0-19.6 16-35.6 35.6-35.6s35.6 16 35.6 35.6v6c0.2 37.8 22.6 71.6 57.2 86.4 35 15.6 75.8 8.2 103.6-19 9.2-9.2 18-12.8 27.6-12.8 0 0 0 0 0 0 9.4 0 18.4 3.8 25.2 10.4 6.8 6.8 10.4 15.6 10.4 25.2 0 9.4-3.8 18.4-10.4 25.2-29.4 30-36.8 70.8-21.4 106.2 14.8 34.4 48.6 56.8 86 57 23 0 39 16 39 35.6s-16 35.6-35.6 35.6h-6c-37.8 0.2-71.6 22.6-86.4 57.2-1.2 3-2.2 6.2-2.6 9.4-12 33.8-3.8 71.2 21.6 97 16.2 16.2 16.2 38.4 2.8 52.2-0.2 0.2-0.4 0.4-0.6 0.4-6.8 6.8-15.6 10.4-25.2 10.4v0c-9.4 0-18.4-3.6-25.2-10.4-30.2-29.6-71-37-106.4-21.2-34.2 14.6-56.6 48.4-56.8 86 0 23-16 39-35.6 39s-35.6-16-35.6-35.6v-6c-0.2-37.8-22.6-71.6-57-86.4-3-1.2-6.2-2.2-9.4-2.6-33.8-11.8-71-3.8-97 21.6-16.2 16.2-38.8 16.2-52.8 2.4-14-14-13.8-36.4 0-50.4 29.6-30 37-70.8 21.2-106.4-12.6-34.4-46.4-58.6-85.4-59.6-0.2 0-3.8 0-4 0-19.6 0-35.6-16-35.6-35.6s16-35.6 35.6-35.6h6c37.8-0.2 71.6-22.6 86.4-57 15.4-35.2 8-76-19-103.6-9.2-9.2-12.8-18-12.8-27.6 0-9.4 3.6-18.4 10.4-25.2v0c0.2-0.2 0.2-0.2 0.2-0.4 14-13.6 36.2-13.4 50 0.2 20.2 19.4 44.6 29.4 69.2 29.4zM775 341.4v0z" />
<glyph unicode="&#xe925;" glyph-name="sliders" d="M227.8 483.6c19.6 0 35.6 15.8 35.6 35.6v248.6c0 19.6-15.8 35.6-35.6 35.6-19.6 0-35.6-15.8-35.6-35.6v-248.6c0-19.8 16-35.6 35.6-35.6zM512 483.6c-19.6 0-35.6-15.8-35.6-35.6v-319.8c0-19.6 15.8-35.6 35.6-35.6 19.6 0 35.6 15.8 35.6 35.6v319.8c0 19.8-16 35.6-35.6 35.6zM796.2 412.6c19.6 0 35.6 15.8 35.6 35.6v319.6c0 19.6-15.8 35.6-35.6 35.6-19.6 0-35.6-15.8-35.6-35.6v-319.8c0-19.6 16-35.4 35.6-35.4zM334.4 412.6h-213.2c-19.6 0-35.6-15.8-35.6-35.6 0-19.6 15.8-35.6 35.6-35.6h71v-213.2c0-19.6 15.8-35.6 35.6-35.6 19.6 0 35.6 15.8 35.6 35.6v213.4h71c19.6 0 35.6 15.8 35.6 35.6 0 19.4-16 35.4-35.6 35.4zM618.6 625.8h-71v142c0 19.6-15.8 35.6-35.6 35.6-19.6 0-35.6-15.8-35.6-35.6v-142.2h-71c-19.6 0-35.6-15.8-35.6-35.6 0-19.6 15.8-35.6 35.6-35.6h213.2c19.6 0 35.6 15.8 35.6 35.6s-16 35.8-35.6 35.8zM902.8 341.6h-213.2c-19.6 0-35.6-15.8-35.6-35.6 0-19.6 15.8-35.6 35.6-35.6h71v-142.2c0-19.6 15.8-35.6 35.6-35.6 19.6 0 35.6 15.8 35.6 35.6v142.2h71c19.6 0 35.6 15.8 35.6 35.6 0 19.6-16 35.6-35.6 35.6z" />
<glyph unicode="&#xe926;" glyph-name="table" d="M810.6 874.6h-597.2c-70.6 0-128-57.4-128-128v-597.2c0-70.6 57.4-128 128-128h597.2c70.6 0 128 57.4 128 128v597.4c0 70.4-57.4 127.8-128 127.8zM213.4 789.4h597.2c23.6 0 42.6-19.2 42.6-42.6v-128h-682.4v128c0 23.4 19 42.6 42.6 42.6zM810.6 106.8h-597.2c-23.6 0-42.6 19.2-42.6 42.6v384h682.6v-384c-0.2-23.4-19.2-42.6-42.8-42.6z" />
<glyph unicode="&#xe927;" glyph-name="trash" d="M861 719.6h-155v38.8c0 64.2-52.2 116.4-116.4 116.4h-155.2c-64.2 0-116.4-52.2-116.4-116.4v-38.8h-155c-21.4 0-38.8-17.4-38.8-38.8s17.4-38.8 38.8-38.8h38.8v-504.2c0-64.2 52.2-116.4 116.4-116.4h387.8c64.2 0 116.4 52.2 116.4 116.4v504.2h38.8c21.4 0 38.8 17.4 38.8 38.8-0.2 21.4-17.6 38.8-39 38.8zM395.6 758.4c0 21.4 17.4 38.8 38.8 38.8h155.2c21.4 0 38.8-17.4 38.8-38.8v-38.8h-232.8v38.8zM744.6 137.8c0-21.4-17.4-38.8-38.8-38.8h-387.8c-21.4 0-38.8 17.4-38.8 38.8v504.2h465.4v-504.2z" />
<glyph unicode="&#xe928;" glyph-name="unlock" d="M783.4 525.6h-424.6v116.4c0 41.4 16 80.4 45.4 109.8 29.2 29.4 68.2 45.4 109.6 45.6 0 0 0.2 0 0.2 0 73.4 0 137.4-52.2 152-124.2 4.2-21 24.6-34.8 45.8-30.2 21 4.2 34.6 24.8 30.2 45.8-22 108-117.8 186.4-228 186.4 0 0-0.2 0-0.2 0-62.2 0-120.6-24.4-164.4-68.4s-68-102.4-68-164.6v-116.4h-40.6c-64.2 0-116.4-52.2-116.4-116.4v-271.4c0-64.2 52.2-116.4 116.4-116.4h542.8c64.2 0 116.4 52.2 116.4 116.4v271.2c-0.2 64.2-52.4 116.4-116.6 116.4zM822.2 137.8c0-21.4-17.4-38.8-38.8-38.8h-542.8c-21.4 0-38.8 17.4-38.8 38.8v271.4c0 21.4 17.4 38.8 38.8 38.8h542.8c21.4 0 38.8-17.4 38.8-38.8v-271.4z" />
<glyph unicode="&#xe929;" glyph-name="user" d="M512 838c-136.72 0-248.24-111.52-248.24-248.24 0.119-85.438 43.233-160.781 108.861-205.566l0.859-0.554c-126.48-54.3-216-179.8-216-325.8h70.92c0 156.683 127.017 283.7 283.7 283.7s283.7-127.017 283.7-283.7v0h70.92c0 146-89.62 271.5-216 325.8 66.487 45.339 109.601 120.682 109.72 206.102v0.018c-0.2 136.8-111.72 248.24-248.44 248.24zM512 767.080c0.006 0 0.013 0 0.020 0 97.931 0 177.32-79.389 177.32-177.32s-79.389-177.32-177.32-177.32c-97.931 0-177.32 79.389-177.32 177.32v0c-0.001 0.19-0.001 0.416-0.001 0.641 0 97.622 79.138 176.76 176.76 176.76 0.19 0 0.38 0 0.571-0.001h-0.029z" />
<glyph unicode="&#xe92a;" glyph-name="grid" d="M127.26 346.76h202.5v202.48h-202.5zM208.26 468.24h40.5v-40.48h-40.5zM127.26 630.24h202.5v202.5h-202.5zM208.26 751.74h40.5v-40.5h-40.5zM127.26 63.26h202.5v202.5h-202.5zM208.26 184.76h40.5v-40.5h-40.5zM410.76 346.76h202.48v202.48h-202.48zM491.76 468.24h40.48v-40.48h-40.48zM694.24 346.76h202.5v202.48h-202.5zM775.24 468.24h40.5v-40.48h-40.5zM410.76 63.26h202.48v202.5h-202.48zM491.76 184.76h40.48v-40.5h-40.48zM694.24 832.74v-202.5h202.5v202.5zM815.74 711.24h-40.5v40.5h40.5zM694.24 63.26h202.5v202.5h-202.5zM775.24 184.76h40.5v-40.5h-40.5zM410.76 630.24h202.48v202.5h-202.48zM491.76 751.74h40.48v-40.5h-40.48z" />
<glyph unicode="&#xe92b;" glyph-name="list" d="M896 661.4h-554.6c-23.6 0-42.6 19.2-42.6 42.6s19 42.6 42.6 42.6h554.6c23.6 0 42.6-19.2 42.6-42.6s-19-42.6-42.6-42.6zM896 405.4h-554.6c-23.6 0-42.6 19.2-42.6 42.6s19 42.6 42.6 42.6h554.6c23.6 0 42.6-19.2 42.6-42.6s-19-42.6-42.6-42.6zM896 149.4h-554.6c-23.6 0-42.6 19.2-42.6 42.6s19 42.6 42.6 42.6h554.6c23.6 0 42.6-19.2 42.6-42.6s-19-42.6-42.6-42.6zM128 661.4c-3 0-5.6 0.4-8.6 0.8-2.6 0.4-5.2 1.2-7.6 2.6-2.6 0.8-5.2 2.2-7.8 3.8-2.2 1.6-4.2 3.4-6.4 5.2-7.8 8.2-12.4 19.2-12.4 30.2 0 2.6 0.4 5.6 0.8 8.6 0.4 2.6 1.2 5.2 2.6 7.6 0.8 2.6 2.2 5.2 3.8 7.6 1.2 2.2 3.4 4.2 5.2 6.4 9.8 9.8 24.8 14.6 38.4 11.6 3-0.4 5.6-1.2 8.2-2.6 2.6-0.8 5.2-2.2 7.2-3.8 2.6-1.8 4.8-3.4 6.8-5.2 7.6-8.2 12.4-19.2 12.4-30.2s-4.8-22.2-12.4-30.2c-2.2-1.8-4.2-3.4-6.8-5.2-2.2-1.8-4.8-3-7.2-3.8-2.6-1.2-5.2-2.2-8.2-2.6-2.4-0.4-5.4-0.8-8-0.8zM128 405.4c-11.6 0-22.2 4.8-30.2 12.4-3.8 4.2-6.8 9-9 14-2.2 5.2-3.4 10.6-3.4 16.2s1.2 11.2 3.4 16.2c2.2 5.2 5.2 9.8 9 14 2.2 1.8 4.2 3.4 6.4 5.2 2.6 1.8 5.2 3 7.8 3.8 2.6 1.2 5.2 2.2 7.6 2.6 5.6 1.2 11 1.2 16.6 0 3-0.4 5.6-1.2 8.2-2.6 2.6-0.8 5.2-2.2 7.2-3.8 2.6-1.8 4.8-3.4 6.8-5.2 3.8-4.2 6.8-8.6 9-14 2.2-5.2 3.4-10.6 3.4-16.2s-1.2-11-3.4-16.2-5.2-9.8-9-14c-2.2-1.8-4.2-3.8-6.8-5.2-2.2-1.8-4.8-3-7.2-3.8-2.6-1.2-5.2-2.2-8.2-2.6-2.6-0.4-5.6-0.8-8.2-0.8zM128 149.4c-11.6 0-22.2 4.8-30.2 12.4-3.8 4.2-6.8 9-9 14-2.2 5.2-3.4 10.6-3.4 16.2s1.2 11.2 3.4 16.2c2.2 5.2 5.2 9.8 9 14 9.8 9.8 24.8 14.6 38.4 11.6 3-0.4 5.6-1.2 8.2-2.6 2.6-0.8 5.2-2.2 7.2-3.8 2.6-1.2 4.8-3.4 6.8-5.2 3.8-4.2 6.8-8.6 9-14 2.2-5.2 3.4-10.6 3.4-16.2s-1.2-11-3.4-16.2c-2.2-5.2-5.2-9.8-9-14-8.2-7.6-19.2-12.4-30.4-12.4z" />
<glyph unicode="&#xe92c;" glyph-name="dot" d="M938.6 448c0-235.605-190.995-426.6-426.6-426.6s-426.6 190.995-426.6 426.6c0 235.605 190.995 426.6 426.6 426.6s426.6-190.995 426.6-426.6z" />
<glyph unicode="&#xe92d;" glyph-name="upload" d="M895.8 362.8c-23.6 0-42.6-19-42.6-42.6v-170.6c0-23.6-19.2-42.6-42.6-42.6h-597.4c-23.6 0-42.6 19.2-42.6 42.6v170.6c0 23.6-19.2 42.6-42.6 42.6s-42.6-19-42.6-42.6v-170.6c0-70.6 57.4-128 128-128h597.2c70.6 0 128 57.4 128 128v170.6c0 23.4-19.2 42.6-42.8 42.6zM542.2 862.2c-4 4-8.6 7-13.8 9.2s-10.8 3.2-16.2 3.2-11-1.2-16.2-3.2c-5.2-2.2-10-5.2-13.8-9.2l-213.8-213.4c-16.6-16.6-16.6-43.6 0-60.4 16.6-16.6 43.6-16.6 60.4 0l140.4 140.4v-409c0-23.6 19.2-42.6 42.6-42.6 23.6 0 42.6 19.2 42.6 42.6v409.2l140.4-140.4c16.6-16.6 43.6-16.6 60.4 0 16.6 16.6 16.6 43.6 0 60.4l-213 213.2z" />
<glyph unicode="&#xe92e;" glyph-name="image" d="M810.6 874.6h-597.2c-70.6 0-128-57.4-128-128v-597.2c0-70.6 57.4-128 128-128h597.2c70.6 0 128 57.4 128 128v597.4c0 70.4-57.4 127.8-128 127.8zM170.8 746.8c0 23.6 19.2 42.6 42.6 42.6h597.2c23.6 0 42.6-19.2 42.6-42.6v-323.6l-140.4 140.4c-16.6 16.6-43.6 16.6-60.4 0l-454-454c-16.2 6-27.8 21.6-27.8 40v597.2zM810.6 106.8h-494.2l366.2 366.2 170.6-170.6v-153c0-23.4-19-42.6-42.6-42.6zM362.6 490.8c58.8 0 106.6 47.8 106.6 106.6s-47.8 106.6-106.6 106.6c-58.8 0-106.6-47.8-106.6-106.6s47.8-106.6 106.6-106.6zM362.6 618.8c11.8 0 21.4-9.6 21.4-21.4s-9.6-21.4-21.4-21.4c-11.8 0-21.4 9.6-21.4 21.4 0.2 11.8 9.8 21.4 21.4 21.4z" />
<glyph unicode="&#xe92f;" glyph-name="profile-setup" d="M350.8 834.9v-225.7c0.501 0.004 1.092 0.006 1.684 0.006 22.384 0 43.995-3.313 64.368-9.475l-1.572 0.409v170.28h258v-161.22h161.22v-419.2h-224.76c9.886-18.489 18.202-39.941 23.843-62.453l0.417-1.967h264.9v512.84l-196.48 196.48zM350.8 544.72c-88.927-0.261-160.948-72.274-161.22-161.174v-0.026c0-48.86 22.8-92.32 57.44-122-73.002-38.423-121.941-113.739-122-200.492v-0.008h64.56c1.015 88.264 72.802 159.424 161.21 159.424s160.196-71.161 161.209-159.329l0.001-0.096h64.48c-0.016 86.773-48.971 162.108-120.765 199.907l-1.235 0.593c34.64 29.6 57.44 73.060 57.44 122-0.272 88.891-72.236 160.883-161.090 161.2h-0.030zM350.8 480.24c53.383-0.046 96.64-43.331 96.64-96.72 0-53.417-43.303-96.72-96.72-96.72s-96.72 43.303-96.72 96.72v0c-0.001 0.131-0.001 0.286-0.001 0.441 0 53.174 43.106 96.28 96.28 96.28 0.183 0 0.366-0.001 0.549-0.002h-0.028z" />
<glyph unicode="&#xe930;" glyph-name="manage-merchant" d="M196.42 838.76l-16.7-15.78-41.72-41.76-15.8-16.7 12-19.48 62.16-104 8.36-14.84h87.28l118.76-117.82c-106.12-106.6-241.12-242-245.88-246.8-46.5-46.52-46.62-122.7 0.92-167.020 46.4-45.8 122-46.96 166 0l0.94 0.94 182.78 183.7 183.7-184.64 2.78-1.84c46.62-44 120.74-44.54 164.22 1.84v0.94h0.94c45.46 46.5 46 122.12-0.94 166l-0.92 0.92-154.94 154c104.26 9.74 185.9 97.76 187.42 204.12h0.92c0.029 0.279 0.045 0.603 0.045 0.93s-0.016 0.651-0.048 0.97l0.003-0.040v0.92c2.9 34.34-4.52 67.16-22.26 95.56l-20.42 31.56-138.24-138.26-41.68 43.82 141.040 141-40.84 16.7c-24.292 10.956-52.643 17.429-82.483 17.64h-0.077c-114.12 0-207.74-93.72-207.74-207.84 0-12.4 2.68-23.2 4.64-34.32-12.98-13-22.72-23.66-38-38.98l-117.98 117.8v88.18l-14.84 8.34-103.82 62.18zM693.74 772c4.16 0 7.060-2.44 11.12-2.8l-112.26-112.3 20.42-21.34 83.5-86.28 20.4-21.28 117.84 117.82c0.58-6.84 5.46-11.82 4.64-19.48v-2.78c-0.159-81.924-66.534-148.292-148.446-148.44h-0.014c-10.9 0-24.12 2.54-38.96 5.56l-15.78 2.78-11.12-11.14-334.94-335.92h-0.94v-0.92c-21.1-23.080-58-23.66-82.56 0.92v0.92h-0.94c-23.080 21.12-23.66 58 0.94 82.58 11.24 11.26 229.16 231.020 335.86 337.72l12 12-4.5 16.76c-2.676 11.048-4.352 23.813-4.637 36.921l-0.003 0.199c0.136 81.917 66.472 148.296 148.36 148.5h0.020zM205.74 764.56l69.58-42.68v-29.68l-6.48-6.5h-29.74l-42.68 69.6zM640 403.6l184.64-183.7v-0.92h0.92c23.080-21.12 23.66-58-0.92-82.58h-0.94v-0.92c-21.1-23.080-58-23.66-82.56 0.92l-183.72 184.64z" />
<glyph unicode="&#xe931;" glyph-name="merchant-request" d="M902 58h-780v780h780zM160 96h704v704h-704zM787.34 535.34h-298.68v166.66h298.68zM528.66 575.34h218.68v86.66h-218.68zM788.66 319.34h-298.66v166.66h298.66zM530 359.34h218.66v86.66h-218.66zM222.66 228.66h578.66v-40h-578.66v40zM251.34 424h133.34v-40h-133.34v40zM251.34 636h133.34v-40h-133.34v40z" />
<glyph unicode="&#xe932;" glyph-name="merchant-type" d="M277.020 470.34v-156.7h179.080v156.7zM411.34 358.34h-89.54v67.22h89.54zM500.88 299.78l44.76 4.48v121.3h44.78v-116.82l41.16 4.12 3.6 8.28v149.2h-134.3v-170.56zM508.3 224l-50.18 44.78h-225.86v263.8c11.726-10.851 27.471-17.506 44.77-17.506s33.044 6.656 44.814 17.546l-0.044-0.040c11.726-10.851 27.471-17.506 44.77-17.506s33.044 6.656 44.814 17.546l-0.044-0.040c11.726-10.851 27.471-17.506 44.77-17.506s33.044 6.656 44.814 17.546l-0.044-0.040c11.726-10.851 27.471-17.506 44.77-17.506s33.044 6.656 44.814 17.546l-0.044-0.040c11.726-10.851 27.471-17.506 44.77-17.506s33.044 6.656 44.814 17.546l-0.044-0.040v-108.44l31.74 73.060 13.020-30v47.9c37.009 0.203 66.957 30.151 67.16 67.141v7.759l-67.16 89.52v81.82h-537.24v-81.86l-67.14-89.48v-7.7c0.192-37.007 30.135-66.957 67.121-67.16h0.019v-291.14zM232.3 716.46h447.7v-22.38h-447.74zM167.2 577.36l53.86 72h470l53.86-72c-2.44-9.7-9.78-17.48-20.28-17.48-0.024 0-0.052 0-0.080 0-12.316 0-22.3 9.984-22.3 22.3 0 0.028 0 0.056 0 0.084v-0.004h-44.7c0-12.36-10.020-22.38-22.38-22.38s-22.38 10.020-22.38 22.38v0h-44.8c0-12.36-10.020-22.38-22.38-22.38s-22.38 10.020-22.38 22.38v0h-44.76c0-12.36-10.020-22.38-22.38-22.38s-22.38 10.020-22.38 22.38v0h-44.78c0-12.36-10.020-22.38-22.38-22.38s-22.38 10.020-22.38 22.38v0h-44.76c-0.372-12.080-10.254-21.731-22.39-21.731s-22.018 9.651-22.389 21.697l-0.001 0.034h-44.76c0-0.018 0-0.039 0-0.060 0-12.327-9.993-22.32-22.32-22.32-0.028 0-0.056 0-0.084 0h0.004c-10.48 0-17.84 7.78-20.28 17.48zM898.6 269.78l-129.24 12.92-51.7 118.94-51.66-118.94-129.24-12.92 95.62-85.32-25.86-126.62 111.18 64.62 111.16-64.62-25.84 126.62zM769.36 223.22l-23.24-20.58 5.16-28.48 2.52-12.92-10.3 5.14-25.84 15.62-25.86-15.56-10.3-5.14 2.54 12.92 5.14 28.48-23.18 20.52-10.3 7.78 12.92 2.62 31 2.54 12.92 28.46 5.16 10.3 5.14-10.3 12.92-28.46 31-2.54 12.94-2.62z" />
<glyph unicode="&#xe933;" glyph-name="pdf" d="M212 838v-780h600v780zM272 778h480v-660h-480zM494.22 617.66c-0.091 0.001-0.199 0.001-0.307 0.001-10.198 0-19.571-3.535-26.959-9.447l0.086 0.066c-7.62-6.44-11.020-14.42-13.14-22.5-4.1-16.18-2.92-32.94 0.94-51.58 4.58-21.8 17.58-48 28.14-73.14-5.4-22.84-6.8-43.12-15.020-66.56-7.020-20.16-16-31.78-24.38-49.7-18.86-7.16-41.36-11.38-56.26-20.64-16-10-30.12-20.98-38.44-36.56s-7.42-37.6 3.72-53.4c5.371-8.392 13.069-14.879 22.182-18.624l0.318-0.116c4.675-1.953 10.107-3.087 15.804-3.087 4.742 0 9.3 0.786 13.552 2.234l-0.296-0.088c17.7 6 30.24 19.68 42.2 35.62 11.14 14.78 18.98 39.86 29.060 60 15.14 5.040 26 11.36 42.2 15 16.88 3.76 28.26 2 44 3.76 6.8-7.74 12.54-20.16 19.68-26.26 14.3-12.42 30-22.28 48.76-23.44s37.52 10.54 47.84 28.12h0.92v0.94c4.7 7.461 7.498 16.531 7.52 26.254v0.006c-0.598 10.217-4.774 19.357-11.28 26.282l0.020-0.022c-12.3 13.12-28 16.52-45.020 18.74-13.12 1.76-31.4-2.92-46.88-3.74-13.6 18-27.080 31.42-39.38 54.38-6.68 12.42-8.44 22.98-14 35.64 4.34 20.4 12.88 43.14 14 60.94 1.4 21.58 0.58 40.2-5.62 57.2-3.338 9.369-8.841 17.268-15.929 23.38l-0.071 0.060c-7.346 6.132-16.793 9.972-27.126 10.318l-0.074 0.002zM513.92 395.42c5.38-9.48 12-15.46 17.82-24.38-8.44-1.52-14.9 0-23.46-1.86-1.4-0.36-2.34-1.54-3.74-1.88 1.76 4.68 4 7.5 5.62 12.18 1.84 5.58 1.96 10.52 3.72 16zM624.56 334.48c10-1.3 13.72-3.16 15-3.76-0.22-0.46 0.36-0.34 0-0.92-3.74-6.22-4.1-5.76-6.56-5.64-2 0.12-9.6 4.22-16.88 9.38 2.080-0.060 6.52 1.24 8.4 1zM414.56 287.6c-1.64-2.46-3.040-8.22-4.68-10.32-9.16-12.2-17.6-17.82-19.7-18.76-0.36 0.48 0.58 0 0 0.94h-0.94c-3.040 4.34-2.22 2.58 0 6.56s9.26 12 21.56 19.7c0.86 0.64 2.74 1.34 3.68 1.94z" />
<glyph unicode="&#xe934;" glyph-name="refresh" d="M512 839.48c-166.82 0-306-103.1-362.94-248.76l60.16-24.46c47.52 121.74 162.78 207.98 302.78 207.98 105.78 0 200-51.88 258.94-130.5h-128.44v-65.24h228.36v228.36h-65.24v-100.86c-71.776 81.988-176.639 133.48-293.528 133.48-0.033 0-0.065 0-0.098 0h0.005zM814.78 329.74c-47.52-121.74-162.78-207.98-302.78-207.98-106.92 0-200.84 52.64-260 130.5h129.46v65.24h-228.32v-228.36h65.24v100.86c71.38-80.92 176-133.56 293.62-133.56 166.82 0 306.1 103.1 362.94 248.76z" />
<glyph unicode="&#xe935;" glyph-name="request" d="M122.56 169.48c1.78 8.68 3.1 17.5 5.38 26 19.2 71.64 82.22 121.12 156.44 121.74s148.28 0.1 222.42 0.26c5.58 0 7.52-1.38 7.38-7.24-0.38-16.8-0.44-33.64 0-50.44 0.18-6.48-1.82-8-8.1-8-72.62 0.22-145.22 0.14-217.84 0.16-50.6 0-90-32.4-99.080-82.16-2.7-14.6-0.94-29.5-1.18-44.24 0-4.34 3.1-4 5.88-4 12.22 0 24.46 0 36.68 0h403.6c10.26 0 10.32 0 10.26-10.38 0-18.34-0.24-36.68-0.36-55.020q-257.36 0-514.74-0.16c-6 0-6.9 1.7-6.86 7.18 0.26 35.52 0.12 70.82 0.12 106.3zM646.78 708.92h66.22c18.34 0 36.66 0 55 0 4.26 0 7.28-0.26 7.26-6-0.18-40-0.12-80-0.16-120-0.1-0.797-0.282-1.52-0.542-2.205l0.022 0.065c-2.72-0.74-3.66 1.54-4.96 2.82-10.34 10.4-20.82 20.4-30.72 31.020-4.48 4.78-7.040 5.16-12 0.2-33.78-34.28-68-68-101.82-102.38-5.28-5.36-8-5.2-13 0.12-11.1 12-22.7 23.42-34.56 34.58-4.6 4.34-3.86 6.72 0.22 10.78 34.36 34 68.42 68.42 102.86 102.42 4.9 4.86 5.3 7.66 0 12.48-10.12 9.3-19.6 19.3-29.26 29.080-1.58 1.74-4.020 3-4.56 7.020zM401.44 643.52c-81.8 0.26-148-64.84-148.48-146-0.44-80.16 65.42-147.4 144.58-147.6 83.14-0.2 148.72 64.4 148.98 146.76 0.26 80.22-65.32 146.6-145.080 146.84zM399.68 415.34c-44.755 0.25-80.94 36.589-80.94 81.379 0 44.945 36.435 81.38 81.38 81.38 44.937 0 81.368-36.423 81.38-81.358v-0.001c0-0.024 0-0.053 0-0.082 0-44.912-36.408-81.32-81.32-81.32-0.176 0-0.352 0.001-0.527 0.002h0.027zM904.76 787.040c-0.24 22.48-13.36 36.52-31.28 47.16-6.96 4.14-15.32 3.4-23 5.080h-347.14c-0.755-0.529-1.62-0.988-2.539-1.333l-0.081-0.027c-32.96-8.74-51.86-32.72-52-66.48-0.14-29.3 0-58.6-0.14-88 0-5.44 1.28-7.74 7.22-7.62q25.62 0.52 51.22 0c5.9-0.12 7.24 2 7.18 7.5-0.26 27.5 0 55.040-0.28 82.56 0 6.4 1.78 8 8.1 8q154.84-0.3 309.62 0c6.52 0 8.7-1.44 8.68-8.4q-0.32-170.84 0-341.72c0-7.34-2.48-8.76-9.14-8.72-41.020 0.26-82 0-123.080 0.22-0.218 0.007-0.475 0.011-0.733 0.011-5.050 0-9.729-1.592-13.561-4.301l0.074 0.049c-14.48-10-29.24-19.48-43.78-29.34-0.576-0.419-1.232-0.818-1.919-1.163l-0.081-0.037v-78.48q32.64 21.74 65.18 43.6c3.97 2.758 8.891 4.405 14.198 4.405 0.184 0 0.367-0.002 0.55-0.006h-0.027q56.2-0.26 112.38 0c28.458 0.104 52.626 18.356 61.54 43.781l0.14 0.459c1.22 3.56 2.28 7.18 3.4 10.8v379.18c-0.455 0.655-0.727 1.468-0.727 2.344 0 0.168 0.010 0.333 0.029 0.496l-0.002-0.020z" />
<glyph unicode="&#xe936;" glyph-name="reset" d="M512 839.48c-215.86 0-391.48-175.62-391.48-391.48s175.62-391.48 391.48-391.48 391.48 175.62 391.48 391.48h-60.22c0-0.018 0-0.039 0-0.059 0-182.983-148.337-331.32-331.32-331.32s-331.32 148.337-331.32 331.32c0 182.983 148.337 331.32 331.32 331.32 115.768 0 217.668-59.375 276.909-149.334l0.771-1.247h-157.16v-60.22h240.9v240.9h-60.22v-112c-72.119 87.013-180.195 142.045-301.127 142.12h-0.013z" />
<glyph unicode="&#xe937;" glyph-name="timeline" d="M122 838v-780h65v162.52h71.080c13.58-37.58 49.38-65 91.4-65s77.82 27.42 91.4 65h461.12v64.98h-461.1c-13.58 37.58-49.38 65-91.4 65s-77.82-27.42-91.4-65h-71.080v130h460.98c13.6-37.58 49.38-65 91.4-65s77.82 27.42 91.42 65h71.18v65h-71.1c-13.6 37.58-49.4 65-91.42 65s-77.8-27.5-91.48-65h-460.98v130h233.58c13.58-37.58 49.38-65 91.4-65s77.82 27.42 91.4 65h298.6v64.98h-298.6c-13.58 37.58-49.38 65-91.4 65s-77.82-27.42-91.4-65h-233.58v162.52zM512 675.5c17.949 0 32.5-14.551 32.5-32.5s-14.551-32.5-32.5-32.5c-17.949 0-32.5 14.551-32.5 32.5 0 0.007 0 0.014 0 0.021v-0.001c-0.002 0.138-0.003 0.301-0.003 0.464 0 17.673 14.327 32 32 32 0.177 0 0.354-0.001 0.53-0.004h-0.027zM739.48 480.52c0.006 0 0.013 0 0.020 0 17.949 0 32.5-14.551 32.5-32.5s-14.551-32.5-32.5-32.5c-17.942 0-32.489 14.539-32.5 32.479v0.001c-0.003 0.15-0.004 0.327-0.004 0.504 0 17.673 14.327 32 32 32 0.17 0 0.34-0.001 0.51-0.004h-0.026zM349.48 285.52c0.006 0 0.013 0 0.020 0 17.949 0 32.5-14.551 32.5-32.5s-14.551-32.5-32.5-32.5c-17.942 0-32.489 14.539-32.5 32.479v0.001c-0.003 0.15-0.004 0.327-0.004 0.504 0 17.673 14.327 32 32 32 0.177 0 0.354-0.001 0.531-0.004h-0.027z" />
<glyph unicode="&#xe938;" glyph-name="xls" d="M508 836l-3.040-1.020-355.7-78.8-25.26-6v-604.3l25.26-6 355.66-78.8 3.080-1.080h68.7v97h323.3v582h-323.34v97zM512 770.32v-644.64l-323.34 70.72v503.2zM576.66 674.32h258.68v-452.66h-258.68v64.68h64.68v64.66h-64.68v32.34h64.68v64.66h-64.68v32.34h64.68v64.66h-64.68v32.34h64.68v64.66h-64.68zM673.66 642v-64.66h129.34v64.66zM452.38 609.66l-73.76-9.080-40.42-86.9c-4.28-12.5-7.44-22-9.080-28.3h-1.020c-2.302 10.655-5.057 19.78-8.443 28.592l0.443-1.312-20.2 74.78-68.72-8-3.020-2 57.5-129.44-64.66-129.34 69.72-8 28.3 79.82c2.331 6.065 4.726 13.797 6.676 21.704l0.304 1.456h1.020c1.88-10.48 3.16-18.3 5.040-22.22l43.46-94.98 78.8-10.1-85.88 162.68zM673.66 545v-64.66h129.34v64.66zM673.66 448v-64.66h129.34v64.66zM673.66 351v-64.66h129.34v64.66z" />
<glyph unicode="&#xe939;" glyph-name="active" d="M512.94 840.28c-215.48 0-390.8-175.32-390.8-390.8s175.32-390.82 390.8-390.82 390.8 175.34 390.8 390.82-175.32 390.8-390.8 390.8zM512.94 780.16c182.63 0 330.68-148.050 330.68-330.68s-148.050-330.68-330.68-330.68c-182.63 0-330.68 148.050-330.68 330.68v0c0 0.119 0 0.26 0 0.4 0 182.409 147.871 330.28 330.28 330.28 0.141 0 0.282 0 0.423 0h-0.022zM701.76 591.32l-218.88-218.88-128.7 128.7-43.22-43.14 150.32-150.3 21.6-20.68 21.6 20.68 240.5 240.42z" />
<glyph unicode="&#xe93a;" glyph-name="inactive" d="M514 839.34l-4-65.22 36.68-2 29.56-4 3.060-1.020 28.54-7.14 2-1.020h1.020l12.22-5.1 22.42 62.18-15.28 5.080-2 1.020h-1.020l-34.66 9.18h-3.040l-35.68 6.12h-3.060zM444.7 833.22l-10.2-2h-3.040l-34.62-9.22h-1.020l-2-1.020-32.6-12.22h-1.020l-2-1.020-31.6-15.28h-1.020l-1.020-1.020-8.14-5.1 33.62-56 8.16 5.1 25.48 12.24 29.54 11.2h1.020l2 1.020 28.54 7.14 3.020 0.96 7.14 1.020zM707.66 786.34l-33.62-56 19.36-11.2 2-1.020 22.42-17.32 3.060-2 20.38-19.36 2-2 19.36-20.38 47.9 43.82-20.38 22.42-1.020 2-2 1.020-25.48 22.42-2 2-27.52 21.26h-1.020l-2 1.020zM259.26 746.6l-22.42-20.38-2-1.020-1.020-2-22.42-25.48-2-2-21.4-27.6v-1.020l-1.020-2-13.24-21.4 56-33.62 11.2 19.36 1.020 2 17.32 22.42 2 3.060 19.36 20.38 2 2 20.38 19.36zM850.34 643.66l-56-33.62 5.1-8.16 12.24-25.48 11.2-29.54v-1.020l1.020-2 7.14-28.54 1.020-3.060 1.020-7.14 64.2 10.2-2 10.2v3.040l-9.28 34.62v1.020l-1.020 2-12.22 32.6v1.020l-1.020 2-15.28 31.6v1.020l-1.020 1.020zM144.1 581.5l-5.080-15.28-1.020-2v-1.020l-9.18-34.66v-3.040l-6.12-35.68v-3.060l-2-36.68 65.22-4 2 36.68 4 29.56 1.020 3.060 7.14 28.54 1.020 2v1.020l5.1 12.22zM838.1 450.040l-2-36.68-4-29.56-1.020-3.060-7.14-28.54-1.020-2v-1.020l-5.1-12.22 62.18-22.46 5.080 15.28 1.020 2v1.020l9.18 34.66v3.040l6.12 35.68v3.060l2 36.68zM190.98 390.94l-64.2-10.2 2-10.2v-3.040l9.22-34.66v-1.020l1.020-2 12.22-32.6v-1.020l1.020-2 15.28-31.6v-1.020l1.020-1.020 5.1-8.14 56 33.62-5.1 8.16-12.24 25.48-11.2 29.54v1.020l-1.020 2-7.14 28.54-0.96 3.020zM794.28 286l-11.2-19.36-1.020-2-17.32-22.42-2-3.060-19.36-20.38-2-2-20.38-19.36 43.82-47.9 22.42 20.38 2 1.020 1.020 2 22.42 25.48 2 2 21.32 27.48v1.020l1.020 2 13.24 21.4zM261.3 239.080l-48-43.82 20.38-22.42 1.020-2 2-1.020 25.48-22.42 2-2 27.7-21.4h1.020l2-1.020 21.4-13.24 33.62 56-19.36 11.2-2 1.020-22.42 17.32-3.060 2-20.38 19.36-2 2zM674 165.72l-8.16-5.1-25.48-12.24-29.54-11.2h-1.020l-2-1.020-28.54-7.14-3.060-1.020-7.14-1.020 10.2-64.2 10.2 2h3.040l34.66 9.22h1.020l2 1.020 32.6 12.22h1.020l2 1.020 31.6 15.28h1.020l1.020 1.020 8.14 5.1zM400.92 142.28l-22.42-62.28 15.28-5.080 2-1.020h1.020l34.66-9.18h3.040l35.68-6.12h3.060l36.68-2 4 65.22-36.68 2-29.56 4-3.060 1.020-28.54 7.14-2 1.020h-1.020z" />
<glyph unicode="&#xe93b;" glyph-name="config" d="M666.48 838.8v-42.3c-26.049-4.565-49.188-14.455-69.156-28.539l0.536 0.359-31 29.12-41.36-44.16 30-28.2c-13.149-18.946-22.696-41.417-27.103-65.68l-0.157-1.040h-42.24v-60.14h42.28c4.643-25.712 14.529-48.517 28.547-68.173l-0.347 0.513-32-31.020 43.24-43.24 31 32c19.169-13.708 42.006-23.628 66.73-28.144l1.030-0.156v-42.28h60.14v42.28c25.3 4.587 47.768 14.132 67.29 27.633l-0.57-0.373 28.2-30 44.16 41.36-29.12 31.020c13.73 19.424 23.621 42.557 28.031 67.579l0.149 1.021h42.3v60.12h-42.3c-4.638 25.704-14.518 48.502-28.528 68.153l0.348-0.513 28.18 28.2-42.28 42.3-28.2-28.18c-19.143 13.665-41.949 23.545-66.635 28.026l-1.025 0.154v42.3zM696.48 739.18c61.248 0 110.9-49.652 110.9-110.9s-49.652-110.9-110.9-110.9c-61.248 0-110.9 49.652-110.9 110.9v0c-0.001 0.209-0.002 0.456-0.002 0.703 0 60.862 49.338 110.2 110.2 110.2 0.268 0 0.536-0.001 0.803-0.003h-0.041zM306.48 561.56l-55.4-22.56 21.62-54.5c-28.95-17.488-52.645-40.883-69.97-68.662l-0.51-0.878-53.56 21.62-22.56-55.46 53.56-21.62c-4.178-14.936-6.58-32.088-6.58-49.8s2.402-34.864 6.897-51.147l-0.317 1.347-53.56-21.62 22.56-55.46 53.56 21.62c17.687-29.056 41.412-52.768 69.57-69.925l0.91-0.515-21.62-53.6 55.46-22.56 21.6 53.56c14.939-4.178 32.094-6.58 49.81-6.58s34.871 2.402 51.157 6.897l-1.347-0.317 21.62-53.56 55.44 22.56-21.6 53.6c28.657 17.835 52.052 41.53 69.018 69.552l0.522 0.928 54.5-21.62 22.56 55.46-54.5 21.62c4.178 14.936 6.58 32.088 6.58 49.8s-2.402 34.864-6.897 51.147l0.317-1.347 54.5 21.62-22.56 55.46-54.5-21.62c-17.54 28.612-40.928 52-68.643 69.027l-0.897 0.513 21.6 54.5-55.44 22.56-21.62-54.5c-14.939 4.178-32.094 6.58-49.81 6.58s-34.871-2.402-51.157-6.897l1.347 0.317zM377.9 453.56c0.268 0.002 0.585 0.003 0.903 0.003 78.91 0 142.88-63.97 142.88-142.88 0-0.317-0.001-0.635-0.003-0.951v0.049c0-80.12-63.66-144.72-143.78-144.72-0.071 0-0.156 0-0.24 0-79.794 0-144.48 64.686-144.48 144.48 0 0.084 0 0.169 0 0.253v-0.013c0.060 80.040 64.66 143.7 144.82 143.7z" />
</font>
</defs>
</svg>
